<svg xmlns="http://www.w3.org/2000/svg" xmlns:xlink="http://www.w3.org/1999/xlink" version="1.1" id="Layer_1" x="0px" y="0px" style="enable-background:new 0 0 311.66 311.66;" xml:space="preserve" viewBox="103.46 76.33 104.76 159"><style type="text/css">	.st0{fill:#17171a;}</style><g>	<path fill="#00e67a" d="M155.9,188.22c23.2,0,42.49,15.1,46.66,35.03c1.99-3.99,7.9-16.97,4.75-23.95c-3.77-8.32-18.53-18.8-18.53-18.8   s4.17-37.37,0-52.61C182.54,105.06,163,97.61,163,97.61l-5.72-20.18c-0.18-0.65-0.78-1.1-1.45-1.1s-1.27,0.45-1.45,1.1l-5.72,20.18   c0,0-19.54,7.45-25.78,30.27c-4.17,15.25,0,52.61,0,52.61s-14.76,10.48-18.51,18.8c-3.23,7.13,3,20.49,4.85,24.18   C113.28,203.43,132.63,188.22,155.9,188.22z"></path>			<ellipse transform="matrix(0.7071 -0.7071 0.7071 0.7071 -58.0974 153.1541)" class="st0" cx="155.82" cy="146.71" rx="28.99" ry="28.99"></ellipse>	<path fill="#33ffa0" d="M138.71,212.66v19.3c0,1.86-1.5,3.37-3.36,3.37s-3.36-1.51-3.36-3.37v-17.1C134.17,214.08,136.42,213.33,138.71,212.66z"></path>	<path fill="#33ffa0" d="M157.46,209.5v22.46c0,1.86-1.51,3.37-3.37,3.37s-3.36-1.51-3.36-3.37v-22.04c1.72-0.26,3.43-0.45,5.1-0.55   C156.37,209.4,156.91,209.45,157.46,209.5z"></path>	<path fill="#33ffa0" d="M176.2,213.67v18.29c0,1.86-1.51,3.37-3.37,3.37s-3.36-1.51-3.36-3.37v-20.27C171.74,212.27,174,212.95,176.2,213.67z"></path>	<path fill="#33ffa0" d="M169.73,157.61l-0.01-0.03h-2.25c-0.76,0-1.5,0.22-2.11,0.68c-2.97,2.25-6.82,3.38-10.94,2.75   c-6.3-0.96-11.29-6.12-12.06-12.45c-1.05-8.62,5.57-15.99,13.93-16.2c0.12,0,0.25,0,0.37,0c0.12,0,0.25,0,0.37,0   c3.03,0.08,5.83,1.1,8.12,2.77c0.63,0.46,1.37,0.8,2.15,0.83c3.54,0.14,5.16-4.35,2.38-6.45c-3.62-2.73-8.13-4.36-13.02-4.36   c-0.49,0-0.98,0.02-1.47,0.05c-5.9,0.39-11.23,3.51-14.91,8.14c-2.91,3.65-3.88,6.49-4.03,6.98c-0.67,1.73-1.09,3.59-1.19,5.53   c0,0.13-0.01,0.25-0.01,0.37c0,0.18-0.01,0.37-0.01,0.56c0,0.18,0,0.37,0.01,0.56c0,0.12,0.01,0.24,0.01,0.37   c0.1,2.03,0.55,3.96,1.27,5.76c0.68,2.41,3.02,8.58,9.93,12.16c2.79,1.53,5.95,2.46,9.32,2.61c0.12,0,0.24,0.01,0.36,0.01   c0.18,0,0.37,0.01,0.55,0.01c0.18,0,0.37,0,0.55-0.01c0.12,0,0.24-0.01,0.36-0.01c5.39-0.23,10.27-2.45,13.9-5.96   C173.01,160.66,171.95,157.87,169.73,157.61z"></path></g></svg>